<svg width="20" height="20" viewBox="0 0 20 20" fill="none" xmlns="http://www.w3.org/2000/svg">
<g clip-path="url(#clip0_294_196)">
<path d="M19.0121 11.3818L17.4108 5.6858C16.9414 4.0171 15.9213 2.55139 14.5126 1.52166C13.1039 0.491935 11.3875 -0.0427253 9.6362 0.00266955C7.88488 0.0480644 6.19916 0.67091 4.84699 1.7722C3.49482 2.87349 2.55381 4.39003 2.17352 6.08075L0.933743 11.5926C0.796798 12.2017 0.799965 12.8333 0.943008 13.441C1.08605 14.0487 1.36532 14.6168 1.76019 15.1035C2.15507 15.5902 2.65546 15.983 3.22444 16.2529C3.79342 16.5228 4.41644 16.6629 5.04752 16.6629H5.98642C6.17986 17.6047 6.69669 18.4514 7.44933 19.0596C8.20197 19.6678 9.14415 20 10.1162 20C11.0883 20 12.0305 19.6678 12.7831 19.0596C13.5357 18.4514 14.0526 17.6047 14.246 16.6629H14.9523C15.6019 16.6629 16.2428 16.5145 16.8248 16.2291C17.4068 15.9438 17.9142 15.5293 18.3074 15.0179C18.7005 14.5066 18.9688 13.9124 19.0912 13.2816C19.2136 12.6509 19.1868 12.0007 19.013 11.3818H19.0121ZM10.1162 18.3293C9.59514 18.3272 9.08745 18.166 8.66261 17.8677C8.23778 17.5694 7.91654 17.1486 7.74285 16.6629H12.4896C12.3159 17.1486 11.9947 17.5694 11.5698 17.8677C11.145 18.166 10.6373 18.3272 10.1162 18.3293ZM16.9649 14.009C16.7301 14.317 16.4258 14.5667 16.0763 14.7381C15.7267 14.9095 15.3416 14.9979 14.9514 14.9964H5.04752C4.66892 14.9963 4.29516 14.9122 3.95384 14.7502C3.61251 14.5883 3.31234 14.3526 3.07547 14.0606C2.8386 13.7686 2.67109 13.4277 2.58529 13.0632C2.49949 12.6986 2.4976 12.3196 2.57976 11.9542L3.8187 6.44154C4.11735 5.11353 4.85646 3.92233 5.91854 3.0573C6.98061 2.19228 8.30469 1.70306 9.68029 1.66743C11.0559 1.63181 12.4041 2.05181 13.5105 2.86068C14.6169 3.66954 15.4181 4.82085 15.7867 6.13158L17.388 11.8276C17.4938 12.1987 17.5107 12.5891 17.4372 12.9677C17.3638 13.3464 17.2021 13.7029 16.9649 14.009Z" fill="#242A2D"/>
<rect x="9" width="11" height="11" rx="5.5" fill="#22BCFF"/>
</g>
<defs>
<clipPath id="clip0_294_196">
<rect width="20" height="20" fill="white"/>
</clipPath>
</defs>
</svg>
