<svg width="25" height="24" viewBox="0 0 25 24" fill="none" xmlns="http://www.w3.org/2000/svg">
<g clip-path="url(#clip0_1_854)">
<path d="M20.4499 5.53642L16.9639 2.05042C16.3155 1.3985 15.5442 0.881645 14.6947 0.529765C13.8452 0.177884 12.9344 -0.00203383 12.0149 0.000421525H7.49992C6.17432 0.00200938 4.90347 0.529304 3.96614 1.46664C3.0288 2.40398 2.5015 3.67483 2.49992 5.00042V19.0004C2.5015 20.326 3.0288 21.5969 3.96614 22.5342C4.90347 23.4715 6.17432 23.9988 7.49992 24.0004H17.4999C18.8255 23.9988 20.0964 23.4715 21.0337 22.5342C21.971 21.5969 22.4983 20.326 22.4999 19.0004V10.4854C22.5024 9.56594 22.3225 8.6551 21.9706 7.80561C21.6187 6.95612 21.1018 6.18485 20.4499 5.53642ZM19.0359 6.95042C19.341 7.26483 19.6035 7.61783 19.8169 8.00042H15.4999C15.2347 8.00042 14.9803 7.89507 14.7928 7.70753C14.6053 7.51999 14.4999 7.26564 14.4999 7.00042V2.68342C14.8825 2.89681 15.2355 3.15937 15.5499 3.46442L19.0359 6.95042ZM20.4999 19.0004C20.4999 19.7961 20.1838 20.5591 19.6212 21.1217C19.0586 21.6844 18.2956 22.0004 17.4999 22.0004H7.49992C6.70427 22.0004 5.94121 21.6844 5.3786 21.1217C4.81599 20.5591 4.49992 19.7961 4.49992 19.0004V5.00042C4.49992 4.20477 4.81599 3.44171 5.3786 2.8791C5.94121 2.31649 6.70427 2.00042 7.49992 2.00042H12.0149C12.1799 2.00042 12.3379 2.03242 12.4999 2.04742V7.00042C12.4999 7.79607 12.816 8.55913 13.3786 9.12174C13.9412 9.68435 14.7043 10.0004 15.4999 10.0004H20.4529C20.4679 10.1624 20.4999 10.3204 20.4999 10.4854V19.0004ZM17.2239 13.3114C17.4065 13.5035 17.5054 13.7602 17.4988 14.0252C17.4923 14.2901 17.3808 14.5416 17.1889 14.7244L13.5999 18.1384C13.0358 18.6937 12.275 19.0035 11.4834 19.0003C10.6918 18.9971 9.93359 18.6812 9.37392 18.1214L7.83392 16.7474C7.6358 16.5708 7.51596 16.3227 7.50077 16.0577C7.49325 15.9265 7.51165 15.7951 7.55491 15.671C7.59817 15.5469 7.66546 15.4325 7.75292 15.3344C7.84038 15.2363 7.9463 15.1564 8.06465 15.0993C8.18299 15.0421 8.31143 15.0088 8.44264 15.0013C8.70763 14.9861 8.9678 15.0768 9.16592 15.2534L10.7509 16.6674C10.8417 16.7693 10.9523 16.8516 11.076 16.9091C11.1997 16.9667 11.3339 16.9983 11.4703 17.002C11.6067 17.0058 11.7424 16.9816 11.8691 16.9309C11.9957 16.8802 12.1107 16.8042 12.2069 16.7074L15.8069 13.2764C15.9021 13.1854 16.0143 13.1141 16.1372 13.0666C16.26 13.019 16.391 12.9963 16.5227 12.9995C16.6544 13.0028 16.7841 13.032 16.9044 13.0855C17.0248 13.139 17.1333 13.2158 17.2239 13.3114Z" fill="#22BCFF"/>
</g>
<defs>
<clipPath id="clip0_1_854">
<rect width="24" height="24" fill="white" transform="translate(0.5)"/>
</clipPath>
</defs>
</svg>
