<svg width="20" height="20" viewBox="0 0 20 20" fill="none" xmlns="http://www.w3.org/2000/svg">
<g clip-path="url(#clip0_1_929)">
<path d="M9.96492 20.0065L9.38402 19.5086C8.5832 18.838 1.59074 12.7991 1.59074 8.38172C1.59074 3.7568 5.34 0.00753784 9.96492 0.00753784C14.5898 0.00753784 18.3391 3.7568 18.3391 8.38172C18.3391 12.7991 11.3466 18.838 10.5491 19.5119L9.96492 20.0065ZM9.96492 1.81828C6.34176 1.82238 3.40563 4.75852 3.40153 8.38168C3.40153 11.1568 7.70356 15.5899 9.96492 17.6189C12.2263 15.5891 16.5283 11.1534 16.5283 8.38168C16.5242 4.75852 13.5881 1.82242 9.96492 1.81828Z" fill="#464646"/>
<path d="M9.96502 11.7009C8.13174 11.7009 6.64557 10.2147 6.64557 8.38143C6.64557 6.54815 8.13174 5.06198 9.96502 5.06198C11.7983 5.06198 13.2845 6.54815 13.2845 8.38143C13.2845 10.2147 11.7983 11.7009 9.96502 11.7009ZM9.96502 6.72167C9.04838 6.72167 8.3053 7.46475 8.3053 8.3814C8.3053 9.29804 9.04838 10.0411 9.96502 10.0411C10.8817 10.0411 11.6247 9.29804 11.6247 8.3814C11.6247 7.46475 10.8817 6.72167 9.96502 6.72167Z" fill="#464646"/>
</g>
<defs>
<clipPath id="clip0_1_929">
<rect width="20" height="20" fill="white"/>
</clipPath>
</defs>
</svg>
