<svg width="20" height="17" viewBox="0 0 20 17" fill="none" xmlns="http://www.w3.org/2000/svg">
<rect width="20" height="17" fill="#ECECEC"/>
<g id="Contractor Dashboard!" clip-path="url(#clip0_0_1)">
<rect width="393" height="1099" transform="translate(-24 -68)" fill="#E8F8FF"/>
<g id="TopNavigations">
<g id="Frame 15">
<g id="icon btn">
<g id="fi-rr-menu-burger">
<g id="Group 1171275276">
<path id="Vector" d="M19.1667 7.66666H0.833333C0.373096 7.66666 0 8.11437 0 8.66666C0 9.21894 0.373096 9.66666 0.833333 9.66666H19.1667C19.6269 9.66666 20 9.21894 20 8.66666C20 8.11437 19.6269 7.66666 19.1667 7.66666Z" fill="#242A2D"/>
<path id="Vector_2" d="M19.1667 0.666656H0.833333C0.373096 0.666656 0 1.11437 0 1.66666C0 2.21894 0.373096 2.66666 0.833333 2.66666H19.1667C19.6269 2.66666 20 2.21894 20 1.66666C20 1.11437 19.6269 0.666656 19.1667 0.666656Z" fill="#242A2D"/>
<path id="Vector_3" d="M19.1667 14.6667H0.833333C0.373096 14.6667 0 15.1144 0 15.6667C0 16.2189 0.373096 16.6667 0.833333 16.6667H19.1667C19.6269 16.6667 20 16.2189 20 15.6667C20 15.1144 19.6269 14.6667 19.1667 14.6667Z" fill="#242A2D"/>
</g>
</g>
</g>
</g>
</g>
</g>
<defs>
<clipPath id="clip0_0_1">
<rect width="393" height="1099" fill="white" transform="translate(-24 -68)"/>
</clipPath>
</defs>
</svg>
